<svg xmlns="http://www.w3.org/2000/svg" viewBox="0 0 60.12 75.03"><defs><style>.cls-1{fill:none;stroke:#484751;stroke-linecap:square;stroke-miterlimit:10;stroke-width:2.63px;}</style></defs><title>12wrt5t</title><g id="Layer_2" data-name="Layer 2"><g id="Icons"><g id="_16" data-name="16"><path class="cls-1" d="M37.56,38,37,32.9c3.95-3.42,6.6-9.44,6.6-15.36,0-9-1.28-16.22-13.53-16.22S16.53,8.58,16.53,17.54c0,5.92,2.65,11.94,6.6,15.36L22.56,38a4.47,4.47,0,0,1-3.25,3.82L6.83,45.27a7.52,7.52,0,0,0-5.51,7.26V73.72H58.8V52.53a7.52,7.52,0,0,0-5.52-7.26L40.81,41.81A4.47,4.47,0,0,1,37.56,38Z"/><path class="cls-1" d="M21.94,12.08a22,22,0,0,0,6.9,1.41,26.33,26.33,0,0,0,8.89-1.9,9.78,9.78,0,0,0,5.15,1.89"/><path class="cls-1" d="M19.31,42.77l.82.68a15.57,15.57,0,0,0,19.86,0l.82-.68"/></g></g></g></svg>