<svg xmlns="http://www.w3.org/2000/svg" viewBox="0 0 190 50.32"><defs><style>.cls-1{stroke:#000;stroke-width:2px;}</style></defs><title>Asset 10</title><g id="Layer_2" data-name="Layer 2"><g id="Layer_1-2" data-name="Layer 1"><path d="M117.56.06a1.16,1.16,0,0,1,.6.15,1.13,1.13,0,0,1,.41.43,1.23,1.23,0,0,1,.15.61,1.3,1.3,0,0,1-.15.63,1.16,1.16,0,0,1-.41.44,1.08,1.08,0,0,1-.6.16h-1.27l0-.06V4.08a.17.17,0,0,1-.18.18.19.19,0,0,1-.13,0,.21.21,0,0,1-.05-.13V.24A.18.18,0,0,1,116,.11a.17.17,0,0,1,.12,0Zm0,2.08A.69.69,0,0,0,118,2a.87.87,0,0,0,.28-.32,1.06,1.06,0,0,0,.09-.45,1,1,0,0,0-.09-.43.74.74,0,0,0-.28-.3.76.76,0,0,0-.41-.11h-1.27l0,0V2.17l0,0Z"/><path d="M122.74,4.26a.2.2,0,0,1-.14,0,.18.18,0,0,1-.06-.13V.24a.21.21,0,0,1,0-.13.21.21,0,0,1,.13,0h1.62a1.23,1.23,0,0,1,.61.15,1,1,0,0,1,.42.4,1.06,1.06,0,0,1,.16.58,1.3,1.3,0,0,1-.1.49.91.91,0,0,1-.27.37,1,1,0,0,1-.39.23l-.21-.07a1,1,0,0,1,.41.14.92.92,0,0,1,.31.34,1.13,1.13,0,0,1,.13.51,4,4,0,0,0,0,.41.73.73,0,0,0,.07.21.29.29,0,0,0,.1.12.18.18,0,0,1,.09.1.17.17,0,0,1,0,.12.12.12,0,0,1-.07.07.15.15,0,0,1-.09,0,.18.18,0,0,1-.1,0,.73.73,0,0,1-.17-.15.84.84,0,0,1-.14-.3,2,2,0,0,1-.06-.55.88.88,0,0,0-.07-.39.64.64,0,0,0-.2-.23.71.71,0,0,0-.25-.11l-.27,0h-1.4l.07-.09v1.7a.21.21,0,0,1,0,.13A.19.19,0,0,1,122.74,4.26Zm.11-2.12h1.51a.93.93,0,0,0,.38-.14.82.82,0,0,0,.29-.32.91.91,0,0,0,.11-.47.74.74,0,0,0-.23-.57.81.81,0,0,0-.6-.23h-1.43l0-.08V2.22Z"/><path d="M133.24,2.16a2.69,2.69,0,0,1-.14.87,2,2,0,0,1-.42.68,1.81,1.81,0,0,1-.64.45,2,2,0,0,1-.81.16,1.91,1.91,0,0,1-.8-.16,1.81,1.81,0,0,1-.64-.45,2,2,0,0,1-.42-.68,2.45,2.45,0,0,1-.15-.87,2.41,2.41,0,0,1,.15-.87,2,2,0,0,1,.42-.68,1.81,1.81,0,0,1,.64-.45,1.91,1.91,0,0,1,.8-.16,2,2,0,0,1,.81.16,1.81,1.81,0,0,1,.64.45,2,2,0,0,1,.42.68A2.65,2.65,0,0,1,133.24,2.16Zm-.38,0a2,2,0,0,0-.21-.94,1.58,1.58,0,0,0-.57-.63,1.67,1.67,0,0,0-1.69,0,1.54,1.54,0,0,0-.58.63,2.13,2.13,0,0,0-.2.94,2.13,2.13,0,0,0,.2.94,1.54,1.54,0,0,0,.58.63,1.67,1.67,0,0,0,1.69,0,1.58,1.58,0,0,0,.57-.63A2,2,0,0,0,132.86,2.16Z"/><path d="M138.8.06a1.73,1.73,0,0,1,.78.17,1.47,1.47,0,0,1,.55.47,2.19,2.19,0,0,1,.32.69,3,3,0,0,1,.11.8,3,3,0,0,1-.19,1.07,1.73,1.73,0,0,1-.58.77,1.64,1.64,0,0,1-1,.29h-1.53a.18.18,0,0,1-.12-.05.18.18,0,0,1-.06-.13V.24a.18.18,0,0,1,.06-.13.18.18,0,0,1,.12,0ZM138.74,4a1.34,1.34,0,0,0,.83-.24,1.4,1.4,0,0,0,.46-.64,2.81,2.81,0,0,0,.14-.89,2.41,2.41,0,0,0-.08-.67,1.73,1.73,0,0,0-.25-.57,1.28,1.28,0,0,0-.44-.39,1.49,1.49,0,0,0-.66-.14h-1.31l0-.06V4l0-.06Z"/><path d="M147.38.06a.19.19,0,0,1,.13.05.19.19,0,0,1,.05.13V2.72a1.58,1.58,0,0,1-.21.81,1.61,1.61,0,0,1-.56.57,1.57,1.57,0,0,1-.8.21,1.52,1.52,0,0,1-.8-.21,1.56,1.56,0,0,1-.57-.57,1.58,1.58,0,0,1-.21-.81V.24a.19.19,0,0,1,.05-.13.2.2,0,0,1,.14,0,.21.21,0,0,1,.13.05.19.19,0,0,1,.05.13V2.72a1.21,1.21,0,0,0,.17.63,1.24,1.24,0,0,0,.44.44A1.12,1.12,0,0,0,146,4a1.16,1.16,0,0,0,.61-.16,1.32,1.32,0,0,0,.44-.44,1.21,1.21,0,0,0,.17-.63V.24a.18.18,0,0,1,0-.13A.21.21,0,0,1,147.38.06Z"/><path d="M154.75.37a.18.18,0,0,1,.09.13.27.27,0,0,1,0,.14.13.13,0,0,1-.11.06.17.17,0,0,1-.12,0,2.23,2.23,0,0,0-.49-.24,2,2,0,0,0-.56-.08,1.68,1.68,0,0,0-.68.13,1.62,1.62,0,0,0-.55.37,1.7,1.7,0,0,0-.37.57,2.15,2.15,0,0,0-.13.73,2,2,0,0,0,.14.74,1.56,1.56,0,0,0,.37.57,1.53,1.53,0,0,0,.54.37,1.91,1.91,0,0,0,.68.13,1.67,1.67,0,0,0,.55-.09,1.69,1.69,0,0,0,.49-.23.19.19,0,0,1,.13,0,.14.14,0,0,1,.11.07.15.15,0,0,1,0,.14.15.15,0,0,1-.08.11,1.64,1.64,0,0,1-.35.18,2.83,2.83,0,0,1-.44.14,2.3,2.3,0,0,1-.45.05,2,2,0,0,1-.81-.16,2,2,0,0,1-.67-.44,1.9,1.9,0,0,1-.46-.68,2.26,2.26,0,0,1-.17-.88,2.2,2.2,0,0,1,.16-.86A2.12,2.12,0,0,1,152,.62a2.12,2.12,0,0,1,.68-.45,2,2,0,0,1,.82-.16,2.44,2.44,0,0,1,.66.09A2.5,2.5,0,0,1,154.75.37Z"/><path d="M158.42.4a.15.15,0,0,1-.12-.05.13.13,0,0,1-.05-.12.13.13,0,0,1,.05-.12.18.18,0,0,1,.12,0h2.86a.21.21,0,0,1,.13.05.17.17,0,0,1,.05.12.17.17,0,0,1-.05.13.2.2,0,0,1-.13,0Zm1.43,3.86a.19.19,0,0,1-.13,0,.17.17,0,0,1-.05-.13V.26H160V4.08a.21.21,0,0,1,0,.13A.22.22,0,0,1,159.85,4.26Z"/><path d="M165.61,4.07a.23.23,0,0,1-.07.14.18.18,0,0,1-.12,0,.2.2,0,0,1-.14,0,.22.22,0,0,1-.05-.14V.25a.22.22,0,0,1,.05-.14.24.24,0,0,1,.14,0,.21.21,0,0,1,.13.05.18.18,0,0,1,.06.14Z"/><path d="M173.47,2.16a2.69,2.69,0,0,1-.14.87,2,2,0,0,1-.42.68,1.81,1.81,0,0,1-.64.45,2,2,0,0,1-.81.16,1.91,1.91,0,0,1-.8-.16,1.81,1.81,0,0,1-.64-.45A2,2,0,0,1,169.6,3a2.45,2.45,0,0,1-.15-.87,2.41,2.41,0,0,1,.15-.87A2,2,0,0,1,170,.61a1.81,1.81,0,0,1,.64-.45,1.91,1.91,0,0,1,.8-.16,2,2,0,0,1,.81.16,1.81,1.81,0,0,1,.64.45,2,2,0,0,1,.42.68A2.65,2.65,0,0,1,173.47,2.16Zm-.38,0a2,2,0,0,0-.21-.94,1.58,1.58,0,0,0-.57-.63,1.67,1.67,0,0,0-1.69,0,1.54,1.54,0,0,0-.58.63,2.13,2.13,0,0,0-.2.94,2.13,2.13,0,0,0,.2.94,1.54,1.54,0,0,0,.58.63,1.67,1.67,0,0,0,1.69,0,1.58,1.58,0,0,0,.57-.63A2,2,0,0,0,173.09,2.16Z"/><path d="M180.4.06a.17.17,0,0,1,.12.05.16.16,0,0,1,0,.12V4.07a.17.17,0,0,1-.05.14.21.21,0,0,1-.13,0h-.08l-.07,0L177.56.59l.1,0V4.1a.16.16,0,0,1,0,.11.17.17,0,0,1-.24,0,.15.15,0,0,1,0-.11V.24a.16.16,0,0,1,0-.14.28.28,0,0,1,.12,0,.13.13,0,0,1,.08,0,.07.07,0,0,1,.06.05l2.65,3.56-.06.11V.23a.17.17,0,0,1,.05-.12A.17.17,0,0,1,180.4.06Z"/><path d="M185.85,4.32a1.92,1.92,0,0,1-.79-.14,2.08,2.08,0,0,1-.64-.45l0-.06a.16.16,0,0,1,0-.09.18.18,0,0,1,.32-.13,1.58,1.58,0,0,0,.53.38,1.53,1.53,0,0,0,.64.14,1.38,1.38,0,0,0,.52-.09.79.79,0,0,0,.35-.26.59.59,0,0,0,.13-.39.6.6,0,0,0-.15-.45,1.15,1.15,0,0,0-.39-.28,3.52,3.52,0,0,0-.55-.2,3.12,3.12,0,0,1-.46-.17,1.44,1.44,0,0,1-.4-.23.86.86,0,0,1-.27-.33,1,1,0,0,1-.1-.48,1,1,0,0,1,.17-.56,1,1,0,0,1,.48-.39,1.74,1.74,0,0,1,.72-.14,2,2,0,0,1,.68.12,1.29,1.29,0,0,1,.52.35.38.38,0,0,1,.09.18.19.19,0,0,1-.07.12.16.16,0,0,1-.23,0,1,1,0,0,0-.26-.23,1.3,1.3,0,0,0-.34-.15,1.32,1.32,0,0,0-.39-.06,1.36,1.36,0,0,0-.51.09.86.86,0,0,0-.36.25.65.65,0,0,0-.13.39.56.56,0,0,0,.15.41,1.09,1.09,0,0,0,.38.27,4.73,4.73,0,0,0,.5.2,4,4,0,0,1,.49.16,1.69,1.69,0,0,1,.42.23,1,1,0,0,1,.29.35,1.19,1.19,0,0,1,.1.53.9.9,0,0,1-.17.55,1.33,1.33,0,0,1-.48.39A1.58,1.58,0,0,1,185.85,4.32Z"/><line class="cls-1" y1="49.32" x2="190" y2="49.32"/><line class="cls-1" y1="1.82" x2="107.5" y2="1.82"/><path d="M40,10.16h5.12L56.42,40h-6l-2.77-7.43H37.27L34.54,40h-6Zm6.68,18.31L42.52,16.75,38.24,28.47Z"/><path d="M87,18h5.33l-9.2,22H78.47l-3.78-9.66L71,40H66.33L57.18,18h5.29L69,34.69l2.69-7.14L67.85,18h4.53l2.31,6.77L77,18h4.54l-3.82,9.54,2.64,7.14Z"/><path d="M102.25,40.4a8.39,8.39,0,0,1-3-.52,7.17,7.17,0,0,1-2.39-1.47,6.94,6.94,0,0,1-1.58-2.21,6.79,6.79,0,0,1-.56-2.77,6.12,6.12,0,0,1,.69-2.88,6.7,6.7,0,0,1,1.93-2.25,9.83,9.83,0,0,1,3-1.44,12.93,12.93,0,0,1,3.78-.53,16.15,16.15,0,0,1,2.88.25,11.72,11.72,0,0,1,2.5.72V26a4.39,4.39,0,0,0-1.24-3.36,5.13,5.13,0,0,0-3.67-1.18,9.75,9.75,0,0,0-3.45.63A15.93,15.93,0,0,0,97.67,24L96,20.41a16.2,16.2,0,0,1,9.15-2.82c3.17,0,5.62.78,7.37,2.34a8.54,8.54,0,0,1,2.63,6.74v6.84a2,2,0,0,0,.31,1.26,1.35,1.35,0,0,0,1,.42V40a12.2,12.2,0,0,1-2.48.29,3.71,3.71,0,0,1-2.45-.71,3,3,0,0,1-1.07-1.89l-.13-1.22a9.7,9.7,0,0,1-3.57,2.94A10.28,10.28,0,0,1,102.25,40.4Zm1.59-4.12a7.25,7.25,0,0,0,2.71-.5,5,5,0,0,0,2-1.34,2,2,0,0,0,.92-1.6V30.32a14.7,14.7,0,0,0-2.18-.61,12.14,12.14,0,0,0-2.27-.23,6,6,0,0,0-3.57,1,3,3,0,0,0-1.39,2.5,3,3,0,0,0,1.09,2.37A4,4,0,0,0,103.84,36.28Z"/><path d="M135.34,22.84a11.16,11.16,0,0,0-4.58,1,5.75,5.75,0,0,0-2.89,2.84V40h-5.63V18h5.16v4.71a9.91,9.91,0,0,1,1.39-2,10.64,10.64,0,0,1,1.72-1.58,8,8,0,0,1,1.87-1,5.13,5.13,0,0,1,1.83-.36h.69a2.12,2.12,0,0,1,.44,0Z"/><path d="M146.09,40.4a8.34,8.34,0,0,1-3-.52,7.17,7.17,0,0,1-2.39-1.47,6.79,6.79,0,0,1-1.58-2.21,6.63,6.63,0,0,1-.57-2.77,6.13,6.13,0,0,1,.7-2.88,6.59,6.59,0,0,1,1.93-2.25,9.72,9.72,0,0,1,3-1.44,12.93,12.93,0,0,1,3.78-.53,16.15,16.15,0,0,1,2.88.25,11.89,11.89,0,0,1,2.5.72V26a4.42,4.42,0,0,0-1.24-3.36,5.14,5.14,0,0,0-3.68-1.18,9.74,9.74,0,0,0-3.44.63A16.22,16.22,0,0,0,141.51,24l-1.72-3.57A16.23,16.23,0,0,1,149,17.59q4.74,0,7.37,2.34t2.62,6.74v6.84a2,2,0,0,0,.32,1.26,1.35,1.35,0,0,0,1,.42V40a12.2,12.2,0,0,1-2.48.29,3.76,3.76,0,0,1-2.46-.71,3.08,3.08,0,0,1-1.07-1.89l-.12-1.22a9.7,9.7,0,0,1-3.57,2.94A10.29,10.29,0,0,1,146.09,40.4Zm1.6-4.12a7.28,7.28,0,0,0,2.71-.5,4.92,4.92,0,0,0,2-1.34,2,2,0,0,0,.93-1.6V30.32a14.83,14.83,0,0,0-2.19-.61,12.06,12.06,0,0,0-2.27-.23,6,6,0,0,0-3.57,1,3,3,0,0,0-.29,4.87A4,4,0,0,0,147.69,36.28Z"/></g></g></svg>