<svg xmlns="http://www.w3.org/2000/svg" viewBox="0 0 262.51 27.28"><defs><style>.cls-1{fill:red;}.cls-2{fill:#fff;}.cls-3{fill:none;}.cls-4{stroke:#000;stroke-miterlimit:10;stroke-width:2px;}.cls-5{font-size:15px;font-family:Khula, Khula;font-weight:700;}</style></defs><title>Asset 1</title><g id="Layer_2" data-name="Layer 2"><g id="Layer_1-2" data-name="Layer 1"><path d="M20.58,21.37H15.71l-1.54-5.06H6.41L4.87,21.37H0L7.51,0H13Zm-13-8.85h5.55L10.68,4.74c-.18-.58-.3-1.06-.39-1.44Q9.86,5.06,7.54,12.52ZM10,19.85l-4-4h9Z"/><path d="M61.88,21.37H58.77l-.85-2.22H57.8a6.51,6.51,0,0,1-2.31,2,7.51,7.51,0,0,1-3.09.54,5,5,0,0,1-3.7-1.35,5.21,5.21,0,0,1-1.35-3.86,4.27,4.27,0,0,1,1.79-3.75,10.37,10.37,0,0,1,5.49-1.38l2.83-.08v-.71a2.21,2.21,0,0,0-2.54-2.47,11.61,11.61,0,0,0-4.57,1.16l-1.48-3a13.11,13.11,0,0,1,6.18-1.47,7.81,7.81,0,0,1,5.1,1.44,5.34,5.34,0,0,1,1.73,4.33Zm-4.42-6.2V13.83l-1.71.05a5.6,5.6,0,0,0-2.9.7,2.21,2.21,0,0,0-.93,2c0,1.26.71,1.88,2.15,1.88a3.41,3.41,0,0,0,2.47-.88A3.09,3.09,0,0,0,57.46,15.17Z"/><path d="M75.53,4.79A7.31,7.31,0,0,1,77,4.92L76.7,9.08a5,5,0,0,0-1.31-.15A4.76,4.76,0,0,0,72.06,10a4,4,0,0,0-1.18,3.07v8.28H66.44V5.1h3.37l.64,2.73h.23a6.14,6.14,0,0,1,2.07-2.22A5.07,5.07,0,0,1,75.53,4.79Z"/><path d="M92.83,21.37H89.72l-.85-2.22h-.12a6.51,6.51,0,0,1-2.31,2,7.51,7.51,0,0,1-3.09.54,5,5,0,0,1-3.71-1.35,5.25,5.25,0,0,1-1.34-3.86,4.27,4.27,0,0,1,1.79-3.75,10.37,10.37,0,0,1,5.49-1.38l2.83-.08v-.71a2.21,2.21,0,0,0-2.54-2.47,11.69,11.69,0,0,0-4.58,1.16l-1.47-3A13.07,13.07,0,0,1,86,4.76,7.84,7.84,0,0,1,91.1,6.2a5.34,5.34,0,0,1,1.73,4.33Zm-4.42-6.2V13.83l-1.71.05a5.6,5.6,0,0,0-2.9.7,2.22,2.22,0,0,0-.94,2c0,1.26.72,1.88,2.15,1.88a3.42,3.42,0,0,0,2.48-.88A3.13,3.13,0,0,0,88.41,15.17Z"/><path d="M40.64,21.42H35.81l-1.25-5.7-1.7-7.18h-.1l-3,12.88H25L20.39,5.14h4.43l1.88,7.2c.28,1.2.58,3,.9,5.36h.1a39.47,39.47,0,0,1,.74-4.76l2-7.8h4.89l1.9,7.8A32.49,32.49,0,0,1,38,17.7h.08c.09-.6.24-1.53.47-2.79s.39-2.12.48-2.57l2-7.2h4.35Z"/><path class="cls-1" d="M41,4.89l-2,7.2c-.09.44-.26,1.3-.48,2.56s-.38,2.2-.47,2.79h0v3.73h2.61L45.33,4.89Z"/><path class="cls-2" d="M41,21.85l-1-.31H38V14.42l.31-3.53,1.9,6.81c.2.78.37,1.6.53,2.46C40.87,20.74,41,21.3,41,21.85Z"/><path class="cls-3" d="M47,3.89v-1"/><path class="cls-3" d="M47,18.85V16.63"/><path class="cls-3" d="M38,17.44V4.85"/><polygon points="36.65 10.85 39.03 20.85 37.03 20.85 36.65 10.85"/><line class="cls-4" x1="100.03" y1="26.85" x2="100.03" y2="0.85"/><text class="cls-5" transform="translate(107.23 18.61)">film company</text></g></g></svg>