<svg id="Layer_1" data-name="Layer 1" xmlns="http://www.w3.org/2000/svg" viewBox="0 0 389 62"><defs><style>.cls-1{fill:#ce0000;}</style></defs><title>logoAwaraKuvaMusta</title><path d="M23.69,14.87,12.25,41.8a3.29,3.29,0,0,1-1.14,1.56,2.82,2.82,0,0,1-1.67.56,2.65,2.65,0,0,1-2.12-.8,2.88,2.88,0,0,1-.69-2,3.42,3.42,0,0,1,.16-1L20,8.46a3.5,3.5,0,0,1,1.3-1.64,2.78,2.78,0,0,1,1.88-.48,3.05,3.05,0,0,1,1.78.56,3.13,3.13,0,0,1,1.19,1.56l13,31.06a3.47,3.47,0,0,1,.26,1.27,2.94,2.94,0,0,1-.92,2.28,3,3,0,0,1-2,.85,2.81,2.81,0,0,1-1.73-.59,3.74,3.74,0,0,1-1.19-1.59L22.16,15.19Zm-9.8,20.46,2.91-6.09H31.11l1,6.09Z"/><path d="M75.58,15.3a2.89,2.89,0,0,1,2.12.92,3.26,3.26,0,0,1,.9,2.36,4.23,4.23,0,0,1,0,.66,3.05,3.05,0,0,1-.16.56L70.28,41.64a3.07,3.07,0,0,1-3.34,2,3.1,3.1,0,0,1-2.7-2L59,26.53l1.38.06L55.44,41.64a3.1,3.1,0,0,1-2.7,2,3.12,3.12,0,0,1-3.34-2L41.29,19.8a3.56,3.56,0,0,1-.21-1.22,3.44,3.44,0,0,1,.85-2.28,2.87,2.87,0,0,1,2.33-1,3.5,3.5,0,0,1,1.8.47,2.55,2.55,0,0,1,1.11,1.54l6.42,17.38-1.33-.1L57.08,21.5a3,3,0,0,1,2.92-2,2.67,2.67,0,0,1,1.77.5,3.39,3.39,0,0,1,1,1.46l4.83,13.09L66,34.8l6.52-17.49A2.85,2.85,0,0,1,75.58,15.3Z"/><path d="M106.8,14.77a3.09,3.09,0,0,1,2.28.9A3.16,3.16,0,0,1,110,18V40.42a3.15,3.15,0,0,1-.9,2.3,3.26,3.26,0,0,1-4.56,0,3.15,3.15,0,0,1-.9-2.3v-2.6l1.16.48A3,3,0,0,1,104,40a9.82,9.82,0,0,1-2,1.93,12.21,12.21,0,0,1-3,1.62,10.34,10.34,0,0,1-3.73.66,12.17,12.17,0,0,1-6.63-1.88A13.25,13.25,0,0,1,84,37.11a16.26,16.26,0,0,1-1.72-7.61A16.35,16.35,0,0,1,84,21.84a13.29,13.29,0,0,1,4.64-5.19,11.62,11.62,0,0,1,6.46-1.88,12.24,12.24,0,0,1,4.19.69,12.63,12.63,0,0,1,3.31,1.74,10.35,10.35,0,0,1,2.18,2.15,3.47,3.47,0,0,1,.77,1.83l-1.91.69V18a3.19,3.19,0,0,1,.9-2.31A3.07,3.07,0,0,1,106.8,14.77ZM96.09,38.35a7.21,7.21,0,0,0,4.08-1.16A7.82,7.82,0,0,0,102.9,34a10,10,0,0,0,1-4.5,10.21,10.21,0,0,0-1-4.56,7.85,7.85,0,0,0-2.73-3.18,7.67,7.67,0,0,0-8.11,0,8,8,0,0,0-2.73,3.18,10.35,10.35,0,0,0-1,4.56,10.18,10.18,0,0,0,1,4.5,8,8,0,0,0,2.73,3.19A7.16,7.16,0,0,0,96.09,38.35Z"/><path d="M120.05,43.65a3,3,0,0,1-2.28-.93,3.15,3.15,0,0,1-.9-2.3V18.53a3.19,3.19,0,0,1,.9-2.31,3.07,3.07,0,0,1,2.28-.92,3.1,3.1,0,0,1,2.28.92,3.19,3.19,0,0,1,.9,2.31v5L122.86,20a7.93,7.93,0,0,1,1.51-2.25,8.8,8.8,0,0,1,2.09-1.65,9.94,9.94,0,0,1,2.49-1,11.41,11.41,0,0,1,2.65-.31,4.08,4.08,0,0,1,2.68.9,2.69,2.69,0,0,1,1.08,2.12,3.13,3.13,0,0,1-.9,2.51,2.92,2.92,0,0,1-2,.77,4.37,4.37,0,0,1-1.83-.37,4.64,4.64,0,0,0-3.81.08,5.28,5.28,0,0,0-1.81,1.41,7.58,7.58,0,0,0-1.32,2.35,9.79,9.79,0,0,0-.5,3.32V40.42a3.15,3.15,0,0,1-.9,2.3A3.07,3.07,0,0,1,120.05,43.65Z"/><path d="M162.18,14.77a3.09,3.09,0,0,1,2.28.9,3.16,3.16,0,0,1,.9,2.33V40.42a3.15,3.15,0,0,1-.9,2.3,3.26,3.26,0,0,1-4.56,0,3.15,3.15,0,0,1-.9-2.3v-2.6l1.17.48a3,3,0,0,1-.74,1.67,10.16,10.16,0,0,1-2,1.93,12.32,12.32,0,0,1-3,1.62,10.39,10.39,0,0,1-3.74.66,12.11,12.11,0,0,1-6.62-1.88,13.18,13.18,0,0,1-4.69-5.19,16.26,16.26,0,0,1-1.73-7.61,16.35,16.35,0,0,1,1.73-7.66A13.27,13.27,0,0,1,144,16.65a11.65,11.65,0,0,1,6.47-1.88,12.28,12.28,0,0,1,4.19.69A12.79,12.79,0,0,1,158,17.2a10.28,10.28,0,0,1,2.17,2.15,3.47,3.47,0,0,1,.77,1.83l-1.91.69V18a3.19,3.19,0,0,1,.9-2.31A3.07,3.07,0,0,1,162.18,14.77Zm-10.7,23.58a7.25,7.25,0,0,0,4.08-1.16A8,8,0,0,0,158.29,34a10.18,10.18,0,0,0,1-4.5,10.35,10.35,0,0,0-1-4.56,8,8,0,0,0-2.73-3.18,7.25,7.25,0,0,0-4.08-1.16,7.14,7.14,0,0,0-4,1.16,7.85,7.85,0,0,0-2.73,3.18,10.21,10.21,0,0,0-1,4.56,10,10,0,0,0,1,4.5,7.82,7.82,0,0,0,2.73,3.19A7.14,7.14,0,0,0,151.48,38.35Z"/><path d="M218,19.16a5.71,5.71,0,0,1,3,.76A5.54,5.54,0,0,1,223,22a6.26,6.26,0,0,1,.75,3.09,6.49,6.49,0,0,1-.75,3.13,5.8,5.8,0,0,1-2,2.21,5.47,5.47,0,0,1-3,.81h-6.36l.15-.3v8.28a.92.92,0,0,1-.9.9.84.84,0,0,1-.66-.27.92.92,0,0,1-.24-.63V20.06a.92.92,0,0,1,.9-.9Zm0,10.38a3.57,3.57,0,0,0,2-.59,3.92,3.92,0,0,0,1.36-1.59,5,5,0,0,0,.5-2.23,4.64,4.64,0,0,0-.5-2.18,3.74,3.74,0,0,0-1.36-1.48,3.79,3.79,0,0,0-2-.54h-6.36l.15-.27v9.06l-.18-.18Z"/><path d="M228.33,40.16a.84.84,0,0,1-.66-.27.92.92,0,0,1-.24-.63V25.82a.88.88,0,0,1,.25-.63.86.86,0,0,1,.65-.27.84.84,0,0,1,.64.27.89.89,0,0,1,.26.63v4.5l-.45.09a6.89,6.89,0,0,1,.52-2.09,7.13,7.13,0,0,1,1.19-1.9A6,6,0,0,1,232.27,25a5,5,0,0,1,2.33-.54,2.57,2.57,0,0,1,1.05.22.77.77,0,0,1,.51.74.93.93,0,0,1-.24.69.78.78,0,0,1-.57.24,1.39,1.39,0,0,1-.59-.15,1.91,1.91,0,0,0-.82-.15,3.28,3.28,0,0,0-1.68.49,5.81,5.81,0,0,0-1.53,1.34,6.87,6.87,0,0,0-1.1,1.87,5.7,5.7,0,0,0-.4,2.09v7.41a.92.92,0,0,1-.9.9Z"/><path d="M252.48,32.48a8.33,8.33,0,0,1-1,4.1,7.41,7.41,0,0,1-2.71,2.84,7.7,7.7,0,0,1-7.73,0,7.38,7.38,0,0,1-2.73-2.84,8.93,8.93,0,0,1,0-8.21A7.63,7.63,0,0,1,241,25.52a7.64,7.64,0,0,1,7.73,0,7.65,7.65,0,0,1,2.71,2.85A8.29,8.29,0,0,1,252.48,32.48Zm-1.8,0a6.9,6.9,0,0,0-.75-3.26A5.81,5.81,0,0,0,247.87,27a5.79,5.79,0,0,0-5.94,0,5.92,5.92,0,0,0-2.07,2.25,6.79,6.79,0,0,0-.76,3.26,6.68,6.68,0,0,0,.76,3.24A6,6,0,0,0,241.93,38a5.79,5.79,0,0,0,5.94,0,5.86,5.86,0,0,0,2.06-2.24A6.79,6.79,0,0,0,250.68,32.48Z"/><path d="M268.62,18a.86.86,0,0,1,.64.25.89.89,0,0,1,.26.65v20.4a.92.92,0,0,1-.9.9.84.84,0,0,1-.66-.27.92.92,0,0,1-.24-.63V35.69l.51-.42a4,4,0,0,1-.45,1.76,6.09,6.09,0,0,1-1.28,1.69A6.66,6.66,0,0,1,264.58,40a5.85,5.85,0,0,1-2.38.48,6.42,6.42,0,0,1-3.59-1.05,7.37,7.37,0,0,1-2.53-2.85,9.52,9.52,0,0,1,0-8.21,7.35,7.35,0,0,1,2.52-2.85,6.4,6.4,0,0,1,3.57-1,6.25,6.25,0,0,1,2.37.45,6.5,6.5,0,0,1,2,1.23,6,6,0,0,1,1.35,1.78,4.69,4.69,0,0,1,.5,2.09l-.63-.45V18.86a.92.92,0,0,1,.24-.63A.84.84,0,0,1,268.62,18Zm-6.24,20.82A5,5,0,0,0,265.2,38a5.66,5.66,0,0,0,1.93-2.25,7.3,7.3,0,0,0,.71-3.26,7.2,7.2,0,0,0-.71-3.23A5.66,5.66,0,0,0,265.2,27a5.24,5.24,0,0,0-5.63,0,5.63,5.63,0,0,0-1.95,2.25,7.2,7.2,0,0,0-.7,3.23,7.27,7.27,0,0,0,.7,3.24A5.62,5.62,0,0,0,259.57,38,5.06,5.06,0,0,0,262.38,38.78Z"/><path d="M286.17,24.92a.84.84,0,0,1,.64.27.89.89,0,0,1,.26.63v8.46a5.88,5.88,0,0,1-1.68,4.53,6.39,6.39,0,0,1-4.53,1.56,6.31,6.31,0,0,1-4.49-1.56,5.91,5.91,0,0,1-1.66-4.53V25.82a.88.88,0,0,1,.25-.63.86.86,0,0,1,.65-.27.84.84,0,0,1,.64.27.89.89,0,0,1,.26.63v8.46a4,4,0,0,0,4.35,4.41,4.48,4.48,0,0,0,3.24-1.13,4.34,4.34,0,0,0,1.17-3.28V25.82a.92.92,0,0,1,.24-.63A.84.84,0,0,1,286.17,24.92Z"/><path d="M298.41,24.47a10.39,10.39,0,0,1,2.64.31,5.67,5.67,0,0,1,1.93.86,1.5,1.5,0,0,1,.74,1.17.93.93,0,0,1-.23.58.68.68,0,0,1-.55.29,1,1,0,0,1-.62-.18,3.39,3.39,0,0,1-.43-.42,2,2,0,0,0-.63-.45,5.43,5.43,0,0,0-1.13-.33,8.15,8.15,0,0,0-1.63-.15,5.62,5.62,0,0,0-3,.84,6.09,6.09,0,0,0-2.13,2.26,6.56,6.56,0,0,0-.78,3.2,7,7,0,0,0,.73,3.24A5.61,5.61,0,0,0,295.36,38a5.83,5.83,0,0,0,3.08.82,6.54,6.54,0,0,0,1.87-.21,5.25,5.25,0,0,0,1.13-.48,2.87,2.87,0,0,0,.85-.64.84.84,0,0,1,.68-.32.78.78,0,0,1,.57.22.84.84,0,0,1,.21.59A1.54,1.54,0,0,1,303,39a6.3,6.3,0,0,1-1.93,1,8.8,8.8,0,0,1-2.85.43,7.13,7.13,0,0,1-6.56-3.92,8.71,8.71,0,0,1-.94-4.09,8.34,8.34,0,0,1,1-4,7.68,7.68,0,0,1,2.67-2.9A7.29,7.29,0,0,1,298.41,24.47Z"/><path d="M306.21,24.89h7a.82.82,0,0,1,.6.25.88.88,0,0,1,.24.62.78.78,0,0,1-.24.57.81.81,0,0,1-.6.24h-7a.85.85,0,0,1-.62-.26.77.77,0,0,1-.25-.58.79.79,0,0,1,.25-.6A.88.88,0,0,1,306.21,24.89Zm3.09-4.23a.84.84,0,0,1,.64.27.89.89,0,0,1,.26.63V36.62a2.76,2.76,0,0,0,.22,1.26,1.12,1.12,0,0,0,.59.55,1.84,1.84,0,0,0,.72.14,1.43,1.43,0,0,0,.43-.07,1.23,1.23,0,0,1,.44-.08.6.6,0,0,1,.46.21.77.77,0,0,1,.2.54.83.83,0,0,1-.48.71,2.19,2.19,0,0,1-1.14.28l-.81,0a3.26,3.26,0,0,1-1.11-.33,2.28,2.28,0,0,1-1-1,4.59,4.59,0,0,1-.37-2.07V21.56a.88.88,0,0,1,.25-.63A.86.86,0,0,1,309.3,20.66Z"/><path d="M318.21,22.55a1.34,1.34,0,0,1-.95-.29,1,1,0,0,1-.31-.82v-.3a1,1,0,0,1,.34-.83,1.51,1.51,0,0,1,.95-.28,1.31,1.31,0,0,1,.88.28,1.07,1.07,0,0,1,.32.83v.3a1,1,0,0,1-.32.82A1.26,1.26,0,0,1,318.21,22.55Zm.9,16.71a.91.91,0,0,1-1.55.63.88.88,0,0,1-.25-.63V25.46a.88.88,0,0,1,.25-.63.86.86,0,0,1,.65-.27.84.84,0,0,1,.64.27.89.89,0,0,1,.26.63Z"/><path d="M338,32.48a8.33,8.33,0,0,1-1,4.1,7.41,7.41,0,0,1-2.71,2.84,7.7,7.7,0,0,1-7.73,0,7.38,7.38,0,0,1-2.73-2.84,8.93,8.93,0,0,1,0-8.21,7.63,7.63,0,0,1,2.73-2.85,7.64,7.64,0,0,1,7.73,0,7.65,7.65,0,0,1,2.71,2.85A8.29,8.29,0,0,1,338,32.48Zm-1.8,0a6.9,6.9,0,0,0-.75-3.26A5.81,5.81,0,0,0,333.34,27a5.79,5.79,0,0,0-5.94,0,5.92,5.92,0,0,0-2.07,2.25,6.79,6.79,0,0,0-.76,3.26,6.68,6.68,0,0,0,.76,3.24A6,6,0,0,0,327.4,38a5.79,5.79,0,0,0,5.94,0,5.86,5.86,0,0,0,2.06-2.24A6.79,6.79,0,0,0,336.15,32.48Z"/><path d="M348.87,24.47a5.58,5.58,0,0,1,3.16.79,4.46,4.46,0,0,1,1.71,2.16,8.36,8.36,0,0,1,.53,3v8.82a.92.92,0,0,1-.9.9.84.84,0,0,1-.66-.27.92.92,0,0,1-.24-.63V30.53a5.93,5.93,0,0,0-.39-2.19,3.38,3.38,0,0,0-1.28-1.59,4.05,4.05,0,0,0-2.32-.6,5.41,5.41,0,0,0-4.32,2.19,3.64,3.64,0,0,0-.72,2.19v8.73a.92.92,0,0,1-.9.9.84.84,0,0,1-.66-.27.92.92,0,0,1-.24-.63V25.82a.88.88,0,0,1,.25-.63.86.86,0,0,1,.65-.27.84.84,0,0,1,.64.27.89.89,0,0,1,.26.63v2.52l-.69,1.08a3.94,3.94,0,0,1,.61-1.85A6.49,6.49,0,0,1,344.79,26a7.24,7.24,0,0,1,1.93-1.11A6,6,0,0,1,348.87,24.47Z"/><path d="M358.11,37.73a1.19,1.19,0,0,1-.23-.7.66.66,0,0,1,.38-.56.7.7,0,0,1,.55-.18,1,1,0,0,1,.59.3,6.39,6.39,0,0,0,2,1.7,5.67,5.67,0,0,0,2.75.64,5,5,0,0,0,1.66-.29,3.18,3.18,0,0,0,1.37-.86,2.13,2.13,0,0,0,.54-1.49,2.09,2.09,0,0,0-.54-1.5,3.76,3.76,0,0,0-1.4-.9,15.35,15.35,0,0,0-1.81-.57,20.74,20.74,0,0,1-2-.62,6.33,6.33,0,0,1-1.7-.87,4.2,4.2,0,0,1-1.18-1.27,3.5,3.5,0,0,1-.45-1.83,3.71,3.71,0,0,1,.69-2.22,4.59,4.59,0,0,1,1.87-1.5,6.43,6.43,0,0,1,2.69-.54,7.41,7.41,0,0,1,1.62.19,6.75,6.75,0,0,1,1.71.65,5.14,5.14,0,0,1,1.5,1.23.84.84,0,0,1,.27.61.82.82,0,0,1-.3.62.91.91,0,0,1-.56.18.66.66,0,0,1-.52-.24,4.74,4.74,0,0,0-1.71-1.23,5.4,5.4,0,0,0-2.13-.42,4.67,4.67,0,0,0-1.64.28,3.25,3.25,0,0,0-1.27.86,2.16,2.16,0,0,0-.51,1.5,2.09,2.09,0,0,0,.61,1.41,4.38,4.38,0,0,0,1.47.9,18.58,18.58,0,0,0,2.06.66,17.16,17.16,0,0,1,1.84.57,6.4,6.4,0,0,1,1.56.82A3.72,3.72,0,0,1,369,34.31a4,4,0,0,1,.41,1.89,3.65,3.65,0,0,1-.74,2.28,4.65,4.65,0,0,1-2,1.47,7.06,7.06,0,0,1-2.73.51,8.11,8.11,0,0,1-3.14-.63A6.73,6.73,0,0,1,358.11,37.73Z"/><path class="cls-1" d="M192.48,55a1.57,1.57,0,0,1-.43,1.07,1.55,1.55,0,0,1-2.2,0,1.52,1.52,0,0,1-.43-1.07V8.77a1.49,1.49,0,0,1,.43-1.1A1.59,1.59,0,0,1,191,7.24a1.43,1.43,0,0,1,1.07.43,1.56,1.56,0,0,1,.41,1.1Z"/></svg>