<?xml version="1.0" encoding="utf-8"?>
<!-- Generator: Adobe Illustrator 23.1.0, SVG Export Plug-In . SVG Version: 6.00 Build 0)  -->
<svg version="1.1" id="Layer_1" xmlns="http://www.w3.org/2000/svg" xmlns:xlink="http://www.w3.org/1999/xlink" x="0px" y="0px"
	 viewBox="0 0 488.298 484.851" enable-background="new 0 0 488.298 484.851" xml:space="preserve">
<g>
	<path fill="#1E1F1D" d="M135.509,349.904c-3.285,1.444-7.122-0.046-8.564-3.332l-5.323-12.13H90.565l-5.323,12.13
		c-1.442,3.286-5.279,4.776-8.564,3.332s-4.788-5.284-3.332-8.564l26.755-60.28c1.084-2.443,3.482-3.896,5.992-3.883
		c2.511-0.014,4.909,1.439,5.993,3.883l26.755,60.28C140.297,344.62,138.794,348.46,135.509,349.904z M115.919,321.447
		l-9.826-22.387l-9.825,22.387H115.919z"/>
	<path fill="#1E1F1D" d="M168.706,350.563c-3.173,1.548-7,0.23-8.547-2.942l-20.151-41.313c-1.547-3.174-0.229-7,2.943-8.547
		c3.173-1.547,7.022-0.239,8.546,2.943l14.403,30.061l14.403-30.061c0.61-1.236,1.617-2.292,2.953-2.943
		c3.173-1.547,7.021-0.239,8.546,2.943l14.403,30.061l14.402-30.061c1.525-3.183,5.373-4.49,8.546-2.943
		c3.172,1.547,4.49,5.373,2.943,8.547l-20.016,41.031c-0.583,1.359-1.637,2.525-3.071,3.224c-3.172,1.548-6.999,0.23-8.546-2.942
		l-14.411-29.546l-14.274,29.265C171.196,348.698,170.14,349.864,168.706,350.563L168.706,350.563z"/>
	<path fill="#1E1F1D" d="M294.241,303.871v40.052c0,3.53-2.863,6.392-6.392,6.392c-3.53,0-6.392-2.861-6.392-6.392v-0.084
		c-4.484,4.674-10.557,7.541-17.256,7.541c-13.865,0-25.033-12.273-25.033-27.43c0-15.261,11.168-27.536,25.033-27.536
		c6.699,0,12.771,2.868,17.256,7.554v-0.097c0-3.529,2.861-6.392,6.392-6.392C291.378,297.48,294.241,300.342,294.241,303.871z
		 M281.778,323.927c0-8.577-6.654-15.476-14.914-15.476s-14.912,6.898-14.912,15.476c0,8.519,6.652,15.416,14.912,15.416
		S281.778,332.445,281.778,323.927z"/>
	<path fill="#1E1F1D" d="M341.283,302.948c0,3.28-2.413,5.993-5.56,6.473c-7.191,1.097-13.793,6.532-13.793,17.128v17.374
		c0,3.53-2.862,6.392-6.392,6.392c-3.53,0-6.392-2.861-6.392-6.392v-40.052c0-3.529,2.861-6.392,6.392-6.392
		c3.109,0,5.7,2.222,6.273,5.163c3.763-3.749,8.479-6.243,12.923-6.243C338.352,296.4,341.283,299.332,341.283,302.948z"/>
	<path fill="#1E1F1D" d="M407.036,303.871v40.052c0,3.53-2.861,6.392-6.391,6.392c-3.53,0-6.392-2.861-6.392-6.392v-0.084
		c-4.484,4.674-10.556,7.541-17.257,7.541c-13.864,0-25.032-12.273-25.032-27.43c0-15.261,11.168-27.536,25.032-27.536
		c6.701,0,12.772,2.868,17.257,7.554v-0.097c0-3.529,2.861-6.392,6.392-6.392C404.175,297.48,407.036,300.342,407.036,303.871z
		 M394.573,323.927c0-8.577-6.652-15.476-14.912-15.476s-14.914,6.898-14.914,15.476c0,8.519,6.654,15.416,14.914,15.416
		S394.573,332.445,394.573,323.927z"/>
</g>
<g>
	<path fill="#1E1F1D" d="M132.13,399.356c0,5.675-4.598,10.238-10.306,10.238h-7.148v6.71c0,1.478-1.198,2.675-2.675,2.675
		c-1.477,0-2.675-1.197-2.675-2.675v-24.471c0-1.478,1.198-2.675,2.675-2.675h9.823C127.533,389.158,132.13,393.722,132.13,399.356z
		 M126.78,399.365c0-2.805-2.211-5.076-4.956-5.076h-7.148v10.174h7.148C124.569,404.463,126.78,402.192,126.78,399.365z"/>
	<path fill="#1E1F1D" d="M151.058,399.479c0,1.351-0.994,2.467-2.29,2.664c-2.96,0.452-5.678,2.689-5.678,7.052v7.153
		c0,1.453-1.178,2.631-2.631,2.631c-1.454,0-2.631-1.178-2.631-2.631v-16.489c0-1.453,1.178-2.631,2.631-2.631
		c1.28,0,2.347,0.914,2.583,2.125c1.549-1.544,3.491-2.57,5.32-2.57C149.851,396.782,151.058,397.989,151.058,399.479z"/>
	<path fill="#1E1F1D" d="M155.456,408.081c0-6.239,5.087-11.293,11.402-11.293s11.402,5.054,11.402,11.293
		c0,6.283-5.087,11.336-11.402,11.336S155.456,414.364,155.456,408.081z M172.997,408.091c0-3.507-2.739-6.347-6.14-6.347
		s-6.14,2.84-6.14,6.347c0,3.531,2.739,6.371,6.14,6.371S172.997,411.622,172.997,408.091z"/>
	<path fill="#1E1F1D" d="M206.192,390.912v25.436c0,1.453-1.178,2.631-2.631,2.631s-2.631-1.178-2.631-2.631v-0.035
		c-1.846,1.925-4.346,3.104-7.104,3.104c-5.708,0-10.306-5.053-10.306-11.292c0-6.283,4.598-11.337,10.306-11.337
		c2.758,0,5.258,1.181,7.104,3.11v-8.986c0-1.453,1.178-2.631,2.631-2.631S206.192,389.459,206.192,390.912z M201.061,408.115
		c0-3.531-2.739-6.371-6.14-6.371s-6.14,2.84-6.14,6.371c0,3.507,2.739,6.347,6.14,6.347S201.061,411.622,201.061,408.115z"/>
	<path fill="#1E1F1D" d="M233.817,399.859v16.489c0,1.453-1.178,2.631-2.631,2.631c-1.384,0-2.519-1.068-2.623-2.425
		c-1.714,1.766-4.126,2.863-6.805,2.863c-5.222,0-9.429-4.171-9.429-9.322v-10.226c0-1.453,1.178-2.631,2.631-2.631
		c1.453,0,2.631,1.178,2.631,2.631v8.902c0,3.144,2.446,5.69,5.482,5.69s5.482-2.547,5.482-5.69v-8.913
		c0-1.453,1.178-2.631,2.631-2.631S233.817,398.405,233.817,399.859z"/>
	<path fill="#1E1F1D" d="M255.163,412.827c0.425-0.333,0.959-0.533,1.54-0.533c1.37,0,2.481,1.111,2.481,2.481
		c0,0.766-0.346,1.449-0.891,1.904c-2.049,1.712-4.594,2.693-7.377,2.693c-6.314,0-11.402-5.053-11.402-11.292
		s5.087-11.293,11.402-11.293c2.783,0,5.328,0.981,7.377,2.694c0.547,0.453,0.894,1.138,0.894,1.903
		c0,1.373-1.112,2.484-2.484,2.484c-0.582,0-1.117-0.199-1.54-0.535c-1.22-0.964-2.701-1.591-4.246-1.591
		c-3.333,0-6.14,2.841-6.14,6.337s2.807,6.337,6.14,6.337C252.462,414.418,253.943,413.791,255.163,412.827z"/>
	<path fill="#1E1F1D" d="M279.45,414.111c1.55-0.38,3.075,0.809,3.075,2.411c0,1.134-0.759,2.088-1.796,2.387
		c-3.052,0.879-6.146,0.734-8.469-0.719c-1.971-1.231-3.242-3.332-3.242-6.272v-9.517h-2.514c-1.368,0-2.478-1.108-2.478-2.478
		c0-1.368,1.109-2.478,2.478-2.478h2.514v-3.999c0-1.453,1.178-2.631,2.631-2.631s2.632,1.178,2.632,2.631v3.999h4.394
		c1.368,0,2.478,1.109,2.478,2.478c0,1.369-1.109,2.478-2.478,2.478h-4.394v8.917c0,1.242,0.267,2.119,1.071,2.606
		C276.338,414.52,277.814,414.514,279.45,414.111L279.45,414.111z"/>
	<path fill="#1E1F1D" d="M287.355,391.483c0-1.72,1.375-3.114,3.07-3.114s3.069,1.395,3.069,3.114s-1.374,3.113-3.069,3.113
		S287.355,393.202,287.355,391.483z M287.794,416.348v-16.489c0-1.453,1.178-2.631,2.632-2.631c1.452,0,2.631,1.178,2.631,2.631
		v16.489c0,1.453-1.179,2.631-2.631,2.631C288.972,418.979,287.794,417.801,287.794,416.348z"/>
	<path fill="#1E1F1D" d="M299.195,408.081c0-6.239,5.087-11.293,11.401-11.293c6.315,0,11.402,5.054,11.402,11.293
		c0,6.283-5.087,11.336-11.402,11.336C304.282,419.417,299.195,414.364,299.195,408.081z M316.736,408.091
		c0-3.507-2.739-6.347-6.14-6.347s-6.14,2.84-6.14,6.347c0,3.531,2.739,6.371,6.14,6.371S316.736,411.622,316.736,408.091z"/>
	<path fill="#1E1F1D" d="M339.758,396.788c5.222,0,9.429,4.172,9.429,9.323v10.225c0,1.454-1.179,2.632-2.632,2.632
		s-2.631-1.178-2.631-2.632v-8.902c0-3.144-2.445-5.689-5.481-5.689s-5.482,2.546-5.482,5.689v8.914
		c0,1.453-1.178,2.631-2.631,2.631s-2.631-1.178-2.631-2.631v-16.489c0-1.453,1.178-2.631,2.631-2.631
		c1.384,0,2.519,1.067,2.623,2.425C334.666,397.887,337.078,396.788,339.758,396.788L339.758,396.788z"/>
	<path fill="#1E1F1D" d="M356.725,417.632c-0.826-0.374-1.4-1.206-1.4-2.173c0-1.706,1.776-2.877,3.344-2.187
		c1.399,0.613,3.157,1.102,5.312,1.102c2.324,0,4.034-0.57,4.034-1.667c0-1.228-2.148-1.622-3.684-1.886
		c-3.728-0.657-8.684-2.148-8.684-7.06c0-5.044,5.219-7.017,8.99-7.017c2.155,0,4.735,0.66,7.03,1.625
		c0.86,0.363,1.465,1.214,1.465,2.206c0,1.321-1.071,2.393-2.393,2.393c-0.297,0-0.582-0.055-0.844-0.154
		c-1.56-0.589-3.488-1.114-5.215-1.114c-2.192,0-3.333,0.833-3.333,1.886c0,1.315,1.93,1.754,2.982,1.974
		c4.78,1.009,9.385,2.192,9.385,6.841c0,5.263-5.92,6.973-9.604,6.973C361.794,419.373,359.065,418.694,356.725,417.632z"/>
</g>
<path fill="#1E1F1D" d="M370.129,209.388L269.69,35.44c-5.766-10.02-16.576-16.246-28.153-16.246
	c-5.667,0-11.279,1.506-16.212,4.358c-5.041,2.905-9.079,7.033-11.895,11.946l-9.373,16.215l59.332,102.748H201.38l-45.909,79.514
	c-4.597,7.978-14.827,10.709-22.791,6.106c-7.964-4.585-10.705-14.826-6.108-22.791l77.425-134.096l-9.064-15.702l-82.047,141.898
	c-8.948,15.51-3.621,35.423,11.895,44.374c5.101,2.953,10.682,4.341,16.184,4.341c11.24,0,22.185-5.811,28.191-16.221l41.35-71.628
	h80.25L227.111,60.022c-4.594-7.963-1.852-18.195,6.111-22.789c2.539-1.467,5.412-2.242,8.314-2.242
	c5.962,0,11.509,3.202,14.48,8.351l100.43,173.947c4.612,7.965,1.861,18.206-6.111,22.791c-2.53,1.472-5.415,2.245-8.318,2.245
	c-5.957,0-11.506-3.19-14.473-8.35l-17.518-30.344H209.531l-9.117,15.793h100.489l12.969,22.459
	c5.785,10.015,16.564,16.245,28.147,16.245c5.683,0,11.286-1.519,16.222-4.365C373.757,244.811,379.086,224.898,370.129,209.388z"/>
<circle fill="none" stroke="#1E1F1D" stroke-width="4" stroke-miterlimit="10" cx="241.51" cy="241.17" r="235.607"/>
<text transform="matrix(1 0 0 1 761.9431 277.3951)" display="none" fill="#1E1F1D" font-family="'PollyRounded-Bold'" font-size="106.5143px">wara</text>
<text transform="matrix(1 0 0 1 722.3442 336.5269)" display="none" fill="#1E1F1D" font-family="'PollyRounded-Bold'" font-size="43.85px">Productions</text>
<path display="none" fill="#1E1F1D" d="M770.014,265.866l-23.759-41.147c-1.364-2.37-3.921-3.843-6.659-3.843
	c-1.341,0-2.668,0.356-3.835,1.031c-1.193,0.687-2.148,1.664-2.814,2.826l-2.217,3.836l14.035,24.305h-14.668l-10.86,18.809
	c-1.088,1.887-3.507,2.533-5.391,1.444c-1.884-1.085-2.532-3.507-1.445-5.391l18.315-31.72l-2.144-3.714l-19.408,33.566
	c-2.117,3.669-0.857,8.379,2.814,10.497c1.207,0.698,2.527,1.027,3.828,1.027c2.659,0,5.248-1.374,6.669-3.837l9.781-16.944h18.983
	l-15.055-26.075c-1.087-1.884-0.438-4.304,1.446-5.391c0.601-0.347,1.28-0.53,1.967-0.53c1.41,0,2.722,0.757,3.425,1.975
	l23.757,41.147c1.091,1.884,0.44,4.307-1.446,5.391c-0.599,0.348-1.281,0.531-1.968,0.531c-1.409,0-2.722-0.755-3.424-1.975
	l-4.144-7.178h-23.772l-2.157,3.736h23.771l3.068,5.313c1.368,2.369,3.918,3.843,6.658,3.843c1.344,0,2.67-0.359,3.837-1.033
	C770.872,274.245,772.133,269.535,770.014,265.866z"/>
<text transform="matrix(1 0 0 1 1095.0049 409.2645)" display="none" fill="#1E1F1D" font-family="'PollyRounded-Bold'" font-size="106.5143px">Awara</text>
<text transform="matrix(1 0 0 1 1140.0577 477.9292)" display="none" fill="#1E1F1D" font-family="'PollyRounded-Bold'" font-size="43.85px">Productions</text>
<path display="none" fill="#1E1F1D" d="M1404.588,268.339L1304.149,94.39c-5.766-10.02-16.576-16.246-28.153-16.246
	c-5.667,0-11.279,1.506-16.213,4.358c-5.041,2.905-9.079,7.033-11.896,11.946l-9.373,16.215l59.332,102.748h-62.008l-45.909,79.514
	c-4.597,7.978-14.827,10.709-22.791,6.106c-7.964-4.585-10.705-14.826-6.108-22.791l77.425-134.096l-9.064-15.702l-82.047,141.897
	c-8.948,15.51-3.621,35.423,11.895,44.374c5.101,2.953,10.682,4.341,16.184,4.341c11.24,0,22.185-5.81,28.191-16.221l41.35-71.628
	h80.25l-63.645-110.232c-4.594-7.963-1.852-18.195,6.111-22.789c2.539-1.467,5.412-2.242,8.314-2.242
	c5.962,0,11.509,3.202,14.48,8.351l100.43,173.947c4.612,7.965,1.861,18.206-6.111,22.791c-2.53,1.473-5.415,2.245-8.318,2.245
	c-5.957,0-11.505-3.19-14.473-8.35l-17.518-30.344h-100.496l-9.117,15.793h100.489l12.969,22.459
	c5.785,10.015,16.564,16.245,28.146,16.245c5.683,0,11.286-1.519,16.222-4.365C1408.215,303.761,1413.545,283.848,1404.588,268.339z
	"/>
<circle display="none" fill="none" stroke="#1E1F1D" stroke-width="4" stroke-miterlimit="10" cx="1275.969" cy="300.121" r="235.607"/>
</svg>
