<svg xmlns="http://www.w3.org/2000/svg" viewBox="0 0 70.85 63.21"><defs><style>.cls-1{fill:none;stroke:#484751;stroke-miterlimit:10;stroke-width:2.63px;}</style></defs><title>12</title><g id="Layer_2" data-name="Layer 2"><g id="Icons"><g id="_12" data-name="12"><path class="cls-1" d="M15.07,45.75c0,2.67-3.08,4.83-6.88,4.83s-6.87-2.16-6.87-4.83,3.07-4.83,6.87-4.83a9.22,9.22,0,0,1,3.22.56"/><path class="cls-1" d="M61.07,57.06c0,2.67-3.08,4.83-6.87,4.83s-6.88-2.16-6.88-4.83,3.08-4.83,6.88-4.83a9.16,9.16,0,0,1,3.21.56"/><line class="cls-1" x1="44.95" y1="14.58" x2="44.95" y2="37.54"/><polyline class="cls-1" points="15.07 16.75 44.95 8.54 44.95 1.73 15.07 9.94 15.07 16.75 15.07 45.75"/><ellipse class="cls-1" cx="38.07" cy="37.54" rx="6.88" ry="4.83"/><path class="cls-1" d="M61.07,57.06V22.25s8.46,3,8.46,12.33"/></g></g></g></svg>