<svg xmlns="http://www.w3.org/2000/svg" viewBox="0 0 89.68 67.44"><defs><style>.cls-1,.cls-2,.cls-3{fill:none;stroke:#484751;stroke-width:2.63px;}.cls-1,.cls-2{stroke-linecap:square;}.cls-1,.cls-3{stroke-miterlimit:10;}.cls-2{stroke-linejoin:round;}</style></defs><title>7</title><g id="Layer_2" data-name="Layer 2"><g id="Icons"><g id="_7" data-name="7"><path class="cls-1" d="M12,14.45c2.25-.74,4.43,3.9,12.09,1.69,0,0,2.75-4.83-2.87-7.5C16,6.13,10.58,8.22,8.89,10.33,7.54,12,8.2,14.7,8.52,15.7a9.32,9.32,0,0,1,.23.91l.05.29a6.78,6.78,0,0,1,.1,1c.18,5.8,3.42,11.14,7.38,11.14s7.4-5.66,7.4-11.65"/><path class="cls-1" d="M23.82,34a8,8,0,0,1,3.83,1,7.89,7.89,0,0,1,1.54,1.08l.4.38"/><path class="cls-1" d="M9.35,34a8,8,0,0,0-8,8V53H16.58"/><line class="cls-1" x1="20.73" y1="29.05" x2="21.57" y2="33.45"/><line class="cls-1" x1="11.6" y1="33.41" x2="12.37" y2="28.36"/><path class="cls-1" d="M10.42,34,13,37.68a4.27,4.27,0,0,0,3.51,1.83h0A4.26,4.26,0,0,0,20,37.65L22.51,34"/><path class="cls-1" d="M77.36,14.45c-2.25-.74-4.44,3.9-12.09,1.69,0,0-2.75-4.83,2.87-7.5,5.3-2.51,10.67-.42,12.36,1.69,1.35,1.69.69,4.37.37,5.37a9.32,9.32,0,0,0-.23.91l0,.29a6.78,6.78,0,0,0-.1,1c-.18,5.8-3.42,11.14-7.38,11.14s-7.4-5.66-7.4-11.65"/><path class="cls-1" d="M80.34,34a8,8,0,0,1,8,8V53"/><path class="cls-1" d="M60.11,36.45A8,8,0,0,1,65.87,34"/><line class="cls-1" x1="88.37" y1="53.04" x2="73.11" y2="53.04"/><line class="cls-1" x1="77.26" y1="29.05" x2="78.1" y2="33.45"/><line class="cls-1" x1="68.12" y1="33.41" x2="68.9" y2="28.36"/><path class="cls-1" d="M67,34l2.55,3.66A4.3,4.3,0,0,0,73,39.51h0a4.27,4.27,0,0,0,3.53-1.86L79,34"/><path class="cls-1" d="M50.58,10.71c-3-1-6,5.27-16.31,2.28,0,0-3.72-6.52,3.87-10.12C45.3-.53,52.55,2.3,54.82,5.15c2,2.45.79,6.44.42,7.51a3.64,3.64,0,0,0-.16.63l-.21,1.14a3.15,3.15,0,0,0,0,.52c-.09,8-4.52,15.47-10,15.47s-10-7.64-10-15.73"/><path class="cls-1" d="M68.11,66.13H21.58V49.36A12.23,12.23,0,0,1,33.81,37.13H55.87A12.23,12.23,0,0,1,68.11,49.36v11.4"/><polyline class="cls-2" points="46.99 41.9 48.08 37.13 41.61 37.13 42.53 41.9"/><polygon class="cls-3" points="49.35 53.4 47.19 42.3 42.5 42.3 40.34 53.4 44.85 57.18 49.35 53.4"/><line class="cls-1" x1="50.93" y1="32.95" x2="51.58" y2="36.36"/><line class="cls-1" x1="38.11" y1="36.31" x2="39.16" y2="29.49"/></g></g></g></svg>